<svg width="49" height="48" viewBox="0 0 49 48" fill="none" xmlns="http://www.w3.org/2000/svg">
<path d="M10.4522 28C9.0012 25.6164 8.1665 22.8236 8.1665 19.8377C8.1665 11.0908 15.3299 4 24.1665 4C33.0031 4 40.1665 11.0908 40.1665 19.8377C40.1665 22.8236 39.3319 25.6164 37.8807 28" stroke="white" stroke-width="1.5" stroke-linecap="round"/>
<path d="M14.9322 34.1964C14.7485 33.6432 14.6566 33.3666 14.6673 33.1426C14.69 32.6686 14.9888 32.2524 15.4296 32.081C15.6381 32 15.9286 32 16.5096 32H31.8233C32.4045 32 32.6949 32 32.9033 32.081C33.3443 32.2524 33.6431 32.6686 33.6657 33.1426C33.6763 33.3666 33.5845 33.6432 33.4007 34.1964C33.0611 35.2188 32.8913 35.7302 32.6295 36.144C32.0809 37.0112 31.2209 37.6334 30.2277 37.8816C29.7535 38 29.2165 38 28.1427 38H20.1903C19.1164 38 18.5795 38 18.1054 37.8816C17.1122 37.6334 16.2521 37.0112 15.7035 36.144C15.4416 35.7302 15.2718 35.2188 14.9322 34.1964Z" stroke="white" stroke-width="1.5"/>
<path d="M30.1665 38L29.9079 39.2932C29.6251 40.7074 29.4837 41.4144 29.1667 41.9732C28.6769 42.837 27.8829 43.4878 26.9397 43.7988C26.3297 44 25.6087 44 24.1665 44C22.7243 44 22.0033 44 21.3933 43.7988C20.4501 43.4878 19.6562 42.837 19.1662 41.9732C18.8494 41.4144 18.708 40.7074 18.4251 39.2932L18.1665 38" stroke="white" stroke-width="1.5"/>
<path d="M16.6665 19.5L21.1665 24V32M16.6665 21C17.4949 21 18.1665 20.3284 18.1665 19.5C18.1665 18.6716 17.4949 18 16.6665 18C15.8381 18 15.1665 18.6716 15.1665 19.5C15.1665 20.3284 15.8381 21 16.6665 21Z" stroke="white" stroke-width="1.5" stroke-linecap="round" stroke-linejoin="round"/>
<path d="M31.6665 19.5L27.1665 24V32M31.6665 21C30.8381 21 30.1665 20.3284 30.1665 19.5C30.1665 18.6716 30.8381 18 31.6665 18C32.4949 18 33.1665 18.6716 33.1665 19.5C33.1665 20.3284 32.4949 21 31.6665 21Z" stroke="white" stroke-width="1.5" stroke-linecap="round" stroke-linejoin="round"/>
</svg>
