<svg width="33" height="33" viewBox="0 0 33 33" fill="none" xmlns="http://www.w3.org/2000/svg">
<path d="M3.26666 21.5001C3.26666 21.5001 5.66045 20.5 9.93333 20.5C16.6 20.5 21.9333 24.5 29.9333 24.5" stroke="black" stroke-opacity="0.6" stroke-width="1.5" stroke-linecap="round" stroke-linejoin="round"/>
<path d="M3.26666 28.5H29.9333" stroke="black" stroke-opacity="0.6" stroke-width="1.5" stroke-linecap="round" stroke-linejoin="round"/>
<path d="M17.392 4.80348C13.5979 5.89157 11.1316 9.63632 11.2724 13.6667C11.3017 14.5039 11.3163 14.9224 11.674 15.1075C12.0317 15.2925 12.4029 15.0303 13.1455 14.5055L14.8008 13.3357C15.0495 13.16 15.3447 13.0754 15.642 13.0945L19.5303 13.3443L22.781 11.0472C23.0296 10.8715 23.3247 10.7869 23.6222 10.806L25.6506 10.9363C26.521 10.9922 26.9562 11.0202 27.1722 10.6851C27.3883 10.35 27.2126 9.98777 26.8612 9.26323C25.1142 5.65985 21.2071 3.70943 17.392 4.80348Z" stroke="black" stroke-opacity="0.6" stroke-width="1.5" stroke-linecap="round" stroke-linejoin="round"/>
<path d="M19.9333 13.1667L22.6 23.1667M16.9809 4.50008L16.6 3.16675" stroke="black" stroke-opacity="0.6" stroke-width="1.5" stroke-linecap="round" stroke-linejoin="round"/>
</svg>
