<svg width="33" height="33" viewBox="0 0 33 33" fill="none" xmlns="http://www.w3.org/2000/svg">
<g clip-path="url(#clip0_25_1155)">
<path d="M24.5348 5.1875L23.6027 2.85742C23.0299 1.42529 21.6632 0.5 20.1207 0.5H12.6791C11.1368 0.5 9.77014 1.42529 9.19739 2.85742L8.26526 5.1875H0.400024V32.5H32.4V5.1875H24.5348ZM10.9384 3.55371C11.2247 2.83765 11.9081 2.375 12.6791 2.375H20.1207C20.892 2.375 21.5753 2.83765 21.8617 3.55371L22.5153 5.1875H10.2848L10.9384 3.55371ZM2.27502 30.625V18.3101C2.82043 18.7202 3.45764 19.0146 4.15002 19.1558V28.75H28.65V19.1558C29.3424 19.0146 29.9796 18.7202 30.525 18.3101V30.625H2.27502ZM14.525 19.25H18.275V21.125H14.525V19.25ZM20.15 23V19.25H26.775V26.875H6.02502V19.25H12.65V23H20.15ZM27.7125 17.375H5.08752C3.53674 17.375 2.27502 16.1133 2.27502 14.5625V7.0625H30.525V14.5625C30.525 16.1133 29.2633 17.375 27.7125 17.375Z" fill="black" fill-opacity="0.6"/>
</g>
<defs>
<clipPath id="clip0_25_1155">
<rect width="32" height="32" fill="white" transform="translate(0.400024 0.5)"/>
</clipPath>
</defs>
</svg>
