<svg width="32" height="33" viewBox="0 0 32 33" fill="none" xmlns="http://www.w3.org/2000/svg">
<path d="M6.74446 16.4551C8.11286 15.8983 8.6947 14.1507 8.04404 12.5517C7.39338 10.9528 5.75661 10.108 4.38821 10.6648C3.01981 11.2217 2.43796 12.9693 3.08862 14.5682C3.73928 16.1672 5.37606 17.012 6.74446 16.4551Z" stroke="black" stroke-opacity="0.6"/>
<path d="M24.7791 20.1374C26.0374 20.9116 27.7907 20.3473 28.6953 18.877C29.5999 17.4067 29.3132 15.5873 28.0549 14.8131C26.7966 14.039 25.0433 14.6033 24.1387 16.0735C23.2341 17.5438 23.5208 19.3633 24.7791 20.1374Z" stroke="black" stroke-opacity="0.6"/>
<path d="M12.8333 12.5001C14.5822 12.5001 16 10.8585 16 8.83341C16 6.80837 14.5822 5.16675 12.8333 5.16675C11.0844 5.16675 9.66666 6.80837 9.66666 8.83341C9.66666 10.8585 11.0844 12.5001 12.8333 12.5001Z" stroke="black" stroke-opacity="0.6"/>
<path d="M20.4272 13.8907C22.0162 14.4167 23.7891 13.3784 24.3872 11.5716C24.9852 9.76481 24.1818 7.87376 22.5928 7.34782C21.0038 6.82187 19.2309 7.86019 18.6328 9.66696C18.0348 11.4737 18.8382 13.3648 20.4272 13.8907Z" stroke="black" stroke-opacity="0.6"/>
<path d="M10.6222 17.6009C12.8882 14.5588 17.4451 14.5588 19.7111 17.6009L23.2332 22.3291C24.9264 24.6021 23.3041 27.8334 20.4698 27.8334C20.1011 27.8334 19.7338 27.7882 19.3761 27.6987L17.6793 27.2742C16.0282 26.8611 14.3022 26.8491 12.6456 27.2392L10.6131 27.7178C10.2868 27.7946 9.95263 27.8334 9.61737 27.8334C6.8847 27.8334 5.32063 24.7181 6.95307 22.5266L10.6222 17.6009Z" stroke="black" stroke-opacity="0.6"/>
</svg>
