<svg width="33" height="33" viewBox="0 0 33 33" fill="none" xmlns="http://www.w3.org/2000/svg">
<g clip-path="url(#clip0_25_1142)">
<path d="M7.05 7.25C5.2575 7.25 3.8 5.7925 3.8 4C3.8 2.2075 5.2575 0.75 7.05 0.75C8.8425 0.75 10.3 2.2075 10.3 4C10.3 5.7925 8.8425 7.25 7.05 7.25ZM7.05 2.25C6.085 2.25 5.3 3.035 5.3 4C5.3 4.965 6.085 5.75 7.05 5.75C8.015 5.75 8.8 4.965 8.8 4C8.8 3.035 8.015 2.25 7.05 2.25ZM27.3 19.75C25.9225 19.75 24.8 18.6275 24.8 17.25C24.8 15.8725 25.9225 14.75 27.3 14.75C28.6775 14.75 29.8 15.8725 29.8 17.25C29.8 18.6275 28.6775 19.75 27.3 19.75ZM27.3 16.25C26.7475 16.25 26.3 16.6975 26.3 17.25C26.3 17.8025 26.7475 18.25 27.3 18.25C27.8525 18.25 28.3 17.8025 28.3 17.25C28.3 16.6975 27.8525 16.25 27.3 16.25ZM16.8 7.25C15.0075 7.25 13.55 5.7925 13.55 4C13.55 2.2075 15.0075 0.75 16.8 0.75C18.5925 0.75 20.05 2.2075 20.05 4C20.05 5.7925 18.5925 7.25 16.8 7.25ZM16.8 2.25C15.835 2.25 15.05 3.035 15.05 4C15.05 4.965 15.835 5.75 16.8 5.75C17.765 5.75 18.55 4.965 18.55 4C18.55 3.035 17.765 2.25 16.8 2.25Z" fill="black" fill-opacity="0.6"/>
<path d="M32.2875 27.365L31.8475 24.9475C31.4525 22.78 29.7175 21.1425 27.53 20.8775C24.8525 20.5525 22.7875 18.4525 22.51 15.77L22.2375 13.1625C22.0994 11.813 21.4646 10.563 20.4566 9.65516C19.4485 8.74736 18.1391 8.24656 16.7825 8.25002C15.6175 8.25002 14.505 8.61002 13.565 9.29252C13.4041 9.40936 13.2961 9.58526 13.2647 9.78164C13.2333 9.97801 13.281 10.1788 13.3975 10.34C13.5143 10.5009 13.6902 10.6089 13.8866 10.6403C14.083 10.6717 14.2838 10.624 14.445 10.5075C15.124 10.0132 15.9427 9.74793 16.7825 9.75002C18.83 9.75002 20.5325 11.285 20.745 13.32L21.0175 15.9275C21.2425 18.0825 22.3825 19.935 24.05 21.105V25C24.05 25.9075 24.425 26.7275 25.0275 27.3175L25.3025 31.545C25.3275 31.9425 25.6575 32.2475 26.05 32.2475C26.065 32.2475 26.0825 32.2475 26.0975 32.245C26.51 32.22 26.825 31.8625 26.8 31.45L26.595 28.1675C26.8225 28.2175 27.06 28.2475 27.3025 28.2475H28.005L27.805 31.45C27.7989 31.5484 27.8122 31.6469 27.8442 31.7401C27.8763 31.8333 27.9263 31.9192 27.9915 31.9931C28.0568 32.0669 28.1359 32.1271 28.2245 32.1704C28.313 32.2136 28.4092 32.239 28.5075 32.245C28.5225 32.245 28.54 32.2475 28.555 32.2475C28.9475 32.2475 29.2775 31.9425 29.3025 31.545L29.5525 27.545C29.565 27.3375 29.4925 27.135 29.35 26.985C29.2075 26.835 29.0075 26.75 28.8 26.75H27.3C26.335 26.75 25.55 25.965 25.55 25V21.915C26.1175 22.1375 26.72 22.2925 27.35 22.3675C28.8825 22.5525 30.0975 23.6975 30.3725 25.215L30.8125 27.6325C30.8302 27.7294 30.8668 27.8218 30.9202 27.9046C30.9736 27.9873 31.0428 28.0587 31.1238 28.1146C31.2049 28.1706 31.2962 28.21 31.3924 28.2307C31.4887 28.2513 31.5881 28.2528 31.685 28.235C32.0925 28.165 32.3625 27.7725 32.2875 27.365Z" fill="black" fill-opacity="0.6"/>
<path d="M20.05 19.25C19.635 19.25 19.3 19.585 19.3 20V24.25H14.3C14.3 23.835 13.965 23.5 13.55 23.5C13.135 23.5 12.8 23.835 12.8 24.25C12.8 25.0775 13.4725 25.75 14.3 25.75H14.355L14.8025 31.5575C14.8169 31.7459 14.9019 31.9219 15.0405 32.0503C15.1791 32.1787 15.3611 32.25 15.55 32.25C15.57 32.25 15.5875 32.25 15.6075 32.2475C15.8057 32.2322 15.9897 32.1388 16.1191 31.9878C16.2485 31.8369 16.3127 31.6407 16.2975 31.4425L15.86 25.75H17.74L17.3025 31.4425C17.2873 31.6407 17.3515 31.8369 17.4809 31.9878C17.6103 32.1388 17.7943 32.2322 17.9925 32.2475C18.0125 32.25 18.0325 32.25 18.05 32.25C18.4375 32.25 18.7675 31.95 18.7975 31.5575L19.245 25.75H19.3C20.1275 25.75 20.8 25.0775 20.8 24.25V20C20.8 19.585 20.465 19.25 20.05 19.25ZM12.7375 13.165C12.5999 11.8151 11.9654 10.5645 10.9573 9.65615C9.94918 8.74784 8.63944 8.24668 7.2825 8.25002C4.26 8.25002 1.8 10.71 1.8 13.735V21C1.8 21.9775 2.4275 22.8125 3.3 23.1225V30C3.3 31.24 4.31 32.25 5.55 32.25C6.1275 32.25 6.6525 32.03 7.05 31.6725C7.46114 32.0443 7.99571 32.2501 8.55 32.25C9.79 32.25 10.8 31.24 10.8 30V23.5C10.8 23.085 10.465 22.75 10.05 22.75C9.635 22.75 9.3 23.085 9.3 23.5V30C9.3 30.4125 8.9625 30.75 8.55 30.75C8.1375 30.75 7.8 30.4125 7.8 30V21C7.8 20.585 7.465 20.25 7.05 20.25C6.635 20.25 6.3 20.585 6.3 21V30C6.3 30.4125 5.9625 30.75 5.55 30.75C5.1375 30.75 4.8 30.4125 4.8 30V22.5C4.8 22.085 4.465 21.75 4.05 21.75C3.6375 21.75 3.3 21.4125 3.3 21V13.735C3.3 11.5375 5.0875 9.75002 7.2825 9.75002C9.3175 9.75002 11.0125 11.2675 11.24 13.285V21C11.24 21.415 11.575 21.75 11.99 21.75C12.405 21.75 12.74 21.415 12.74 21V13.2425C12.7425 13.2175 12.74 13.1925 12.7375 13.165Z" fill="black" fill-opacity="0.6"/>
</g>
<defs>
<clipPath id="clip0_25_1142">
<rect width="32" height="32" fill="white" transform="translate(0.800003 0.5)"/>
</clipPath>
</defs>
</svg>
