<svg width="33" height="33" viewBox="0 0 33 33" fill="none" xmlns="http://www.w3.org/2000/svg">
<path d="M28.36 18.58H27.56V15.2168C27.56 13.5432 26.1968 12.18 24.5232 12.18H16.8368C15.1632 12.18 13.8 13.5432 13.8 15.2168V18.58H13C12.3824 18.58 11.88 19.0824 11.88 19.7V26.74C11.88 27.3576 12.3824 27.86 13 27.86H13.16V29.3C13.16 29.5656 13.3744 29.78 13.64 29.78H16.2C16.4656 29.78 16.68 29.5656 16.68 29.3V27.86H24.68V29.3C24.68 29.5656 24.8944 29.78 25.16 29.78H27.72C27.9856 29.78 28.2 29.5656 28.2 29.3V27.86H28.36C28.9776 27.86 29.48 27.3576 29.48 26.74V19.7C29.48 19.0824 28.9776 18.58 28.36 18.58ZM14.76 15.2168C14.76 14.0712 15.6912 13.14 16.8368 13.14H24.5232C25.6688 13.14 26.6 14.0712 26.6 15.2168V18.58H25.8C25.1824 18.58 24.68 19.0824 24.68 19.7V22.42H16.68V19.7C16.68 19.0824 16.1776 18.58 15.56 18.58H14.76V15.2168ZM15.72 28.82H14.12V27.86H15.72V28.82ZM27.24 28.82H25.64V27.86H27.24V28.82ZM28.52 26.74C28.52 26.8296 28.4496 26.9 28.36 26.9H27.72H25.16H16.2H13.64H13C12.9104 26.9 12.84 26.8296 12.84 26.74V19.7C12.84 19.6104 12.9104 19.54 13 19.54H15.56C15.6496 19.54 15.72 19.6104 15.72 19.7V22.9C15.72 23.1656 15.9344 23.38 16.2 23.38H25.16C25.4256 23.38 25.64 23.1656 25.64 22.9V19.7C25.64 19.6104 25.7104 19.54 25.8 19.54H28.36C28.4496 19.54 28.52 19.6104 28.52 19.7V26.74ZM11.88 8.81997C11.88 9.08557 12.0944 9.29997 12.36 9.29997C12.6256 9.29997 12.84 9.08557 12.84 8.81997V4.33997C12.84 3.72237 12.3376 3.21997 11.72 3.21997H4.03998C3.42238 3.21997 2.91998 3.72237 2.91998 4.33997V29.3C2.91998 29.5656 3.13438 29.78 3.39998 29.78H6.59998H9.15998H10.44C10.7056 29.78 10.92 29.5656 10.92 29.3C10.92 29.0344 10.7056 28.82 10.44 28.82H9.63998V23.54C9.63998 23.2744 9.42558 23.06 9.15998 23.06H6.59998C6.33438 23.06 6.11998 23.2744 6.11998 23.54V28.82H3.87998V21.46H6.59998H8.51998H9.15998C9.42558 21.46 9.63998 21.2456 9.63998 20.98V15.22C9.63998 14.9544 9.42558 14.74 9.15998 14.74H6.59998C6.33438 14.74 6.11998 14.9544 6.11998 15.22V20.5H3.87998V13.14H6.59998H9.15998H11.08C11.3456 13.14 11.56 12.9256 11.56 12.66C11.56 12.3944 11.3456 12.18 11.08 12.18H9.63998V6.25997C9.63998 5.99437 9.42558 5.77997 9.15998 5.77997H6.59998C6.33438 5.77997 6.11998 5.99437 6.11998 6.25997V12.18H3.87998V4.33997C3.87998 4.25037 3.95358 4.17997 4.03998 4.17997H11.72C11.8096 4.17997 11.88 4.25357 11.88 4.33997V8.81997ZM7.07998 24.02H8.67998V28.82H7.07998V24.02ZM7.07998 15.7H8.67998V20.5H8.51998H7.07998V15.7ZM7.07998 6.73997H8.67998V12.18H7.07998V6.73997ZM25.8 10.58C27.8288 10.58 29.48 8.92877 29.48 6.89997C29.48 4.87117 27.8288 3.21997 25.8 3.21997C23.7712 3.21997 22.12 4.87117 22.12 6.89997C22.12 8.92877 23.7712 10.58 25.8 10.58ZM25.8 4.17997C27.3008 4.17997 28.52 5.39917 28.52 6.89997C28.52 8.40077 27.3008 9.61997 25.8 9.61997C24.2992 9.61997 23.08 8.40077 23.08 6.89997C23.08 5.39917 24.2992 4.17997 25.8 4.17997ZM25.4608 7.23917C25.3712 7.14957 25.32 7.02797 25.32 6.89997V5.61997C25.32 5.35437 25.5344 5.13997 25.8 5.13997C26.0656 5.13997 26.28 5.35437 26.28 5.61997V6.70157L27.4192 7.84077C27.608 8.02957 27.608 8.33357 27.4192 8.51917C27.3264 8.61197 27.2016 8.65997 27.08 8.65997C26.9584 8.65997 26.8336 8.61197 26.7408 8.51917L25.4608 7.23917ZM17.64 16.5032C17.64 16.2376 17.8576 16.02 18.1232 16.02C18.3888 16.02 18.6064 16.2376 18.6064 16.5032C18.6064 16.7688 18.3888 16.9864 18.1232 16.9864C17.8576 16.9864 17.64 16.7688 17.64 16.5032ZM20.2 19.7032C20.2 19.4376 20.4176 19.22 20.6832 19.22C20.9488 19.22 21.1664 19.4376 21.1664 19.7032C21.1664 19.9688 20.9488 20.1864 20.6832 20.1864C20.4176 20.1864 20.2 19.9688 20.2 19.7032ZM22.76 16.5032C22.76 16.2376 22.9776 16.02 23.2432 16.02C23.5088 16.02 23.7264 16.2376 23.7264 16.5032C23.7264 16.7688 23.5088 16.9864 23.2432 16.9864C22.9776 16.9864 22.76 16.7688 22.76 16.5032Z" fill="black" fill-opacity="0.6"/>
</svg>
