<svg width="49" height="48" viewBox="0 0 49 48" fill="none" xmlns="http://www.w3.org/2000/svg">
<path d="M24.2249 12L19.5009 34.171C19.125 35.9354 19.3319 36.596 20.6277 37.863L25.8679 42.9868C26.5587 43.6622 26.9041 44 27.3333 44C27.7625 44 28.1079 43.6622 28.7987 42.9868L34.0389 37.863C35.3347 36.596 35.5415 35.9354 35.1657 34.171L30.4417 12" stroke="white" stroke-width="1.5" stroke-linecap="round" stroke-linejoin="round"/>
<path d="M21.4468 6.24806C21.312 5.20028 21.2446 4.6764 21.5518 4.3382C21.8592 4 22.4026 4 23.4894 4H31.177C32.2638 4 32.8072 4 33.1146 4.3382C33.4218 4.6764 33.3544 5.20028 33.2196 6.24806L33.118 7.03862C32.8328 9.25436 32.6904 10.3622 31.978 11.081C31.8622 11.1978 31.7368 11.3052 31.6032 11.4023C30.7808 12 29.6316 12 27.3332 12C25.0348 12 23.8856 12 23.0632 11.4023C22.9296 11.3052 22.8042 11.1978 22.6884 11.081C21.976 10.3622 21.8336 9.25436 21.5484 7.0386L21.4468 6.24806Z" stroke="white" stroke-width="1.5" stroke-linecap="round" stroke-linejoin="round"/>
<path d="M20.333 30C19.1175 31.385 18.0882 32 17.333 32C16.3642 32 14.6202 29.5588 13.8462 27.7908C13.483 26.9612 13.3014 26.5464 13.3375 26.0216C13.3736 25.4968 13.6115 25.113 14.0872 24.3454C16.7773 20.0048 21.362 16.0423 24.333 12" stroke="white" stroke-width="1.5" stroke-linejoin="round"/>
</svg>
